# xmcd
#
# Track frame offsets: 
#        150
#        11866
#        23032
#        33424
#        44956
#        56357
#        70377
#        84033
#        93953
#        103201
#
# Disc length: 1501 seconds
#
# Revision: 0
# Processed by: cddbd v1.5.2PL0 Copyright (c) Steve Scherf et al.
# Submitted via: ExactAudioCopy v1.1
#
DISCID=7e05db0a
DTITLE=Jimmy Martin - Jimmy Martin_To Mother At Christmas (2007)
DYEAR=2007
DGENRE=Bluegrass
TTITLE0=Christmas Time's a Comin'
TTITLE1=Lord We Sure Need Some Rainbows in December
TTITLE2=Jingle Bells
TTITLE3=To Mother at Christmas
TTITLE4=Silent Night
TTITLE5=Daddy Will Santa Claus Ever Have to Die
TTITLE6=Christmas Is Everywhere Except in My Heart
TTITLE7=Will We Have Room for Jesus
TTITLE8=Rudolph the Red Nosed Reindeer
TTITLE9=Blue Christmas
EXTD=
EXTT0=
EXTT1=
EXTT2=
EXTT3=
EXTT4=
EXTT5=
EXTT6=
EXTT7=
EXTT8=
EXTT9=
PLAYORDER=
